<svg xmlns="http://www.w3.org/2000/svg" xmlns:xlink="http://www.w3.org/1999/xlink" viewBox="0 0 43.73 56.5"><defs><style>.cls-1{isolation:isolate;}.cls-2{fill:#ff33af;}.cls-3{fill:#b3510e;}.cls-4{fill:url(#linear-gradient);}.cls-5{mix-blend-mode:overlay;}.cls-6{fill:#fff;}.cls-7{fill:url(#linear-gradient-2);}</style><linearGradient id="linear-gradient" x1="-0.27" y1="27.89" x2="38.92" y2="27.89" gradientTransform="translate(1.82 9.13) rotate(1.67)" gradientUnits="userSpaceOnUse"><stop offset="0.01" stop-color="#e37b12"/><stop offset="0.16" stop-color="#fdd64e"/><stop offset="0.34" stop-color="#e37b12"/><stop offset="0.55" stop-color="#fdd64e"/><stop offset="0.74" stop-color="#e37b12"/><stop offset="1" stop-color="#fdd64e"/></linearGradient><linearGradient id="linear-gradient-2" x1="25.39" y1="-1.4" x2="41.29" y2="-1.4" xlink:href="#linear-gradient"/></defs><g class="cls-1"><g id="Layer_2" data-name="Layer 2"><g id="Layer_1-2" data-name="Layer 1"><path class="cls-2" d="M11,20.71h0m1-2.77a1.21,1.21,0,0,0-1,1.22l.19,11.65a1.21,1.21,0,0,1-.5,1l-9.5,6.77a1.22,1.22,0,0,0,.35,2.15l11.15,3.41a1.23,1.23,0,0,1,.8.8L17,56.07a1.22,1.22,0,0,0,1.38.83,1.25,1.25,0,0,0,.77-.5l6.69-9.55a1.24,1.24,0,0,1,.78-.5l.22,0,11.66.1a.63.63,0,0,0,.24,0,1.21,1.21,0,0,0,.74-1.92l-7-9.31a1.2,1.2,0,0,1-.18-1.11L36,23a1.22,1.22,0,0,0-1.36-1.58l-.19.05-11,3.79-.18,0a1.21,1.21,0,0,1-.94-.21l-9.37-6.94a1.2,1.2,0,0,0-.93-.22Zm2.23,5.12,6.19,4.58a4.36,4.36,0,0,0,3.39.79,5,5,0,0,0,.64-.17l7.28-2.5-2.45,7.3a4.38,4.38,0,0,0,.66,4l4.63,6.15-7.7-.06a4.47,4.47,0,0,0-.82.07h0A4.34,4.34,0,0,0,23.23,45l-4.42,6.31L16.49,44a4.35,4.35,0,0,0-2.89-2.86L6.24,38.87l6.27-4.47a4.4,4.4,0,0,0,1.83-3.64l-.13-7.7" transform="translate(-0.07 -0.62)"/><path class="cls-3" d="M11,20.77l.09.53-.07-.4.06.38-.21-1.16s0-.05,0-.06l.11.58,0,.13.1.58a.2.2,0,0,1,0-.05l-.22-1.17.07.38-.06-.39.09.52Z" transform="translate(-0.07 -0.62)"/><path class="cls-3" d="M12,18a1.15,1.15,0,0,0-.79.56,1.67,1.67,0,0,0-.14,1l0,2.12c.05,1.41.08,2.83.16,4.25l.19,4.24,0,.53a1.62,1.62,0,0,1-.07.64,1.92,1.92,0,0,1-.8.95L8.92,33.58C6.66,35.3,4.4,37,2.1,38.65a6.22,6.22,0,0,0-.71.55.61.61,0,0,0-.11.51.57.57,0,0,0,.31.41l.15.06.25.08.51.16L6.55,41.7l4,1.33,2,.66a2.37,2.37,0,0,1,.59.26,1.53,1.53,0,0,1,.48.5,5.79,5.79,0,0,1,.38,1.1c.79,2.72,1.58,5.44,2.41,8.15l.63,2a1.22,1.22,0,0,0,.45.79,1,1,0,0,0,.84.16,1.12,1.12,0,0,0,.69-.57l.6-.87,1.21-1.75c.81-1.16,1.61-2.33,2.39-3.51l1.19-1.76.6-.88.29-.44a3,3,0,0,1,.36-.48A1.62,1.62,0,0,1,26.94,46H28l2.12,0,4.25,0,4.19,0a.61.61,0,0,0,.51-.78.62.62,0,0,0-.15-.27l-.33-.42L38,43.52l-5.17-6.74-.64-.85L32,35.72a2.34,2.34,0,0,1-.2-.27,1.86,1.86,0,0,1-.27-.79,1.91,1.91,0,0,1,.09-.82l.17-.51.33-1,1.35-4,1.37-4,.35-1,.16-.49a.63.63,0,0,0,0-.23.57.57,0,0,0-.72-.47c-2.68.89-5.39,1.74-8.1,2.57l-2,.63-1,.31a1.51,1.51,0,0,1-1.29-.18l-3.36-2.63-3.37-2.6L13.78,18.9C13.19,18.54,12.69,17.86,12,18Zm0-.13a1.27,1.27,0,0,1,1,.27l.86.62L15.59,20l3.47,2.46,3.47,2.41a.9.9,0,0,0,.75.06l1-.37,2-.76c2.65-1,5.29-2,8-2.95a1.87,1.87,0,0,1,2.39,2.31l-.17.52-.33,1-1.32,4-1.35,4-.34,1-.17.51a.53.53,0,0,0,0,.22.37.37,0,0,0,.07.2.55.55,0,0,0,.11.16l.16.22.63.85L39,42.77l.63.85.32.43a2.14,2.14,0,0,1,.34.66A1.81,1.81,0,0,1,38.67,47H37.55l-1.06,0-2.13,0-4.24-.11L28,46.75l-1.06,0a.9.9,0,0,0-.71.22,2.82,2.82,0,0,0-.29.37l-.31.43-.63.85-1.25,1.72c-.84,1.14-1.66,2.29-2.48,3.45L20,55.49l-.61.87a1.58,1.58,0,0,1-.94.72,1.46,1.46,0,0,1-1.18-.23,1.71,1.71,0,0,1-.6-1l-.65-2c-.87-2.69-1.79-5.38-2.71-8.06a5.7,5.7,0,0,0-.33-.89.88.88,0,0,0-.26-.25,1.84,1.84,0,0,0-.39-.14l-2-.57L6.22,42.76,2.15,41.55l-.51-.15-.25-.08A2.31,2.31,0,0,1,1,41.18,1.8,1.8,0,0,1,.11,40a1.78,1.78,0,0,1,.35-1.5,5.57,5.57,0,0,1,1-.76c2.31-1.63,4.65-3.22,7-4.8l1.77-1.18c.33-.21.49-.32.6-.59a3.23,3.23,0,0,0,.07-.94l.05-4.25c0-1.41,0-2.83,0-4.25l0-2.12a1.82,1.82,0,0,1,.16-1.07A1.29,1.29,0,0,1,12,17.88Z" transform="translate(-0.07 -0.62)"/><path class="cls-3" d="M14.25,23l4,2.81,2,1.41a4.31,4.31,0,0,0,2.09.89,3.89,3.89,0,0,0,1.13,0,6.15,6.15,0,0,0,1.1-.32l2.3-.86,4.6-1.72h0l1.18-.41L32.28,26l-1.66,4.62-.82,2.31a4.25,4.25,0,0,0-.31,2.21,4.3,4.3,0,0,0,.91,2l1.43,2,2.87,4h0l.23.32h-.39l-4.91.06-2.45,0a8.21,8.21,0,0,0-1.15.1A4.25,4.25,0,0,0,25,44a4.29,4.29,0,0,0-1.58,1.56L22,47.6l-2.73,4.07h0l-.69,1-.37-1.18-1.49-4.68L16,44.51a3.93,3.93,0,0,0-1-1.85,4,4,0,0,0-1.86-1l-2.35-.71L6.06,39.51H6L4.7,39.1l1.15-.77L9.93,35.6,12,34.23a4.28,4.28,0,0,0,1.57-1.59A4.23,4.23,0,0,0,14,30.43l0-2.46.06-4.91h.14L14.51,28l.12,2.45A5,5,0,0,1,14.2,33a5.07,5.07,0,0,1-1.71,2l-2,1.49-3.91,3-.19-1.18h0l4.68,1.45,2.34.73a5.17,5.17,0,0,1,2.38,1.34,5.28,5.28,0,0,1,1.34,2.37l.73,2.34,1.46,4.69L18.32,51h0l2.89-4,1.45-2a4.8,4.8,0,0,1,3.23-2.16,9.58,9.58,0,0,1,1.29-.06l2.46.07,4.9.14-.16.32h0l-3-3.86-1.51-1.93a4.84,4.84,0,0,1-.89-5l.73-2.34,1.46-4.69.76.76h0L27.21,27.8l-2.34.73a7.87,7.87,0,0,1-1.27.3,4.51,4.51,0,0,1-1.32-.06A4.81,4.81,0,0,1,20,27.65L18,26.14l-3.87-3Z" transform="translate(-0.07 -0.62)"/><path class="cls-4" d="M1.52,40.74l11.15,3.41a1.23,1.23,0,0,1,.8.8L17,56.07a1.22,1.22,0,0,0,1.38.83,1.25,1.25,0,0,0,.77-.5l6.69-9.55a1.24,1.24,0,0,1,.78-.5l.22,0,11.66.1a.63.63,0,0,0,.24,0,1.21,1.21,0,0,0,.74-1.92l-7-9.31a1.2,1.2,0,0,1-.18-1.11L36,23a1.22,1.22,0,0,0-1.36-1.58l-.19.05-11,3.79-.18,0a1.21,1.21,0,0,1-.94-.21l-9.37-6.94a1.21,1.21,0,0,0-1.93,1l.19,11.65a1.21,1.21,0,0,1-.5,1l-9.5,6.77A1.22,1.22,0,0,0,1.52,40.74Zm4.72-1.87,6.27-4.47a4.4,4.4,0,0,0,1.83-3.64l-.13-7.7,6.19,4.58a4.36,4.36,0,0,0,3.39.79,5,5,0,0,0,.64-.17l7.28-2.5-2.45,7.3a4.38,4.38,0,0,0,.66,4l4.63,6.15-7.7-.06a4.47,4.47,0,0,0-.82.07h0A4.34,4.34,0,0,0,23.23,45l-4.42,6.31L16.49,44a4.35,4.35,0,0,0-2.89-2.86Z" transform="translate(-0.07 -0.62)"/><g class="cls-5"><path class="cls-6" d="M12.19,18.31a.78.78,0,0,1,.48.17l9.38,6.93a1.58,1.58,0,0,0,.95.32,1.36,1.36,0,0,0,.29,0,.86.86,0,0,0,.23-.06l11-3.79a.31.31,0,0,1,.13,0l.14,0a.83.83,0,0,1,.67.35.78.78,0,0,1,.1.73L31.9,33.94a1.61,1.61,0,0,0,.23,1.47l7,9.32a.82.82,0,0,1-.5,1.3h-.16l-11.68-.1a1.43,1.43,0,0,0-.29,0,1.59,1.59,0,0,0-1,.65l-6.69,9.55a.81.81,0,0,1-.52.34h-.15a.82.82,0,0,1-.79-.57l-3.5-11.12a1.61,1.61,0,0,0-1.06-1L1.64,40.36a.78.78,0,0,1-.57-.65.81.81,0,0,1,.33-.8l9.49-6.77a1.6,1.6,0,0,0,.68-1.33l-.2-11.66a.81.81,0,0,1,.68-.82l.14,0m6.62,33.42a.37.37,0,0,0,.32-.17l4.42-6.3a3.88,3.88,0,0,1,2.55-1.63,3.45,3.45,0,0,1,.74-.07h0l7.7.07h0a.4.4,0,0,0,.35-.22.38.38,0,0,0,0-.41l-4.63-6.15a4,4,0,0,1-.59-3.66l2.44-7.31a.38.38,0,0,0-.1-.4.39.39,0,0,0-.27-.11.27.27,0,0,0-.13,0l-7.28,2.5a3.1,3.1,0,0,1-.58.15,3.35,3.35,0,0,1-.71.07,4.06,4.06,0,0,1-2.38-.78l-6.19-4.58a.4.4,0,0,0-.23-.08.38.38,0,0,0-.39.4l.13,7.7a4,4,0,0,1-1.67,3.31L6,38.55a.41.41,0,0,0-.16.38.4.4,0,0,0,.27.32l7.36,2.25a4,4,0,0,1,2.64,2.61l2.31,7.35a.42.42,0,0,0,.32.27h.06M12.19,17.92l-.21,0a1.21,1.21,0,0,0-1,1.22l.19,11.65a1.21,1.21,0,0,1-.5,1l-9.5,6.77a1.22,1.22,0,0,0,.35,2.15l11.15,3.41a1.23,1.23,0,0,1,.8.8L17,56.07a1.19,1.19,0,0,0,1.16.84h.22a1.25,1.25,0,0,0,.77-.5l6.69-9.55a1.24,1.24,0,0,1,.78-.5l.21,0h0l11.66.1h0a.82.82,0,0,0,.22,0,1.21,1.21,0,0,0,.74-1.92l-7-9.31a1.2,1.2,0,0,1-.18-1.11L36,23a1.22,1.22,0,0,0-1.15-1.6l-.21,0-.19.05-11,3.79-.18,0a.78.78,0,0,1-.22,0,1.26,1.26,0,0,1-.72-.23l-9.37-6.94a1.24,1.24,0,0,0-.72-.24Zm6.62,33.42L16.49,44a4.35,4.35,0,0,0-2.89-2.86L6.24,38.87l6.27-4.47a4.4,4.4,0,0,0,1.83-3.64l-.13-7.7,6.19,4.58A4.41,4.41,0,0,0,23,28.5a4.11,4.11,0,0,0,.78-.07,5,5,0,0,0,.64-.17l7.28-2.5-2.45,7.3a4.38,4.38,0,0,0,.66,4l4.63,6.15-7.7-.06h0a4.11,4.11,0,0,0-.78.07h0A4.34,4.34,0,0,0,23.23,45l-4.42,6.31Z" transform="translate(-0.07 -0.62)"/></g><path class="cls-2" d="M37.31,1.2h0M38.45.82a.5.5,0,0,0-.64,0L34,3.77a.51.51,0,0,1-.46.09L29,2.44a.5.5,0,0,0-.62.65l1.67,4.5a.53.53,0,0,1-.06.46L27.22,12a.5.5,0,0,0,.07.66.55.55,0,0,0,.36.13l4.79-.19a.47.47,0,0,1,.36.13l.06.07,2.88,3.84.06.07a.51.51,0,0,0,.82-.23l1.3-4.62a.48.48,0,0,1,.32-.34l4.54-1.55A.5.5,0,0,0,43,9.1l-.06,0-4-2.67,0,0A.5.5,0,0,1,38.68,6l-.06-4.8a.53.53,0,0,0-.17-.36Zm-1.12,2L37.38,6A1.82,1.82,0,0,0,38,7.31a1.93,1.93,0,0,0,.21.17l2.64,1.75-3,1a1.78,1.78,0,0,0-1.16,1.21l-.86,3L33.91,12a2.85,2.85,0,0,0-.23-.26h0a1.8,1.8,0,0,0-1.29-.46l-3.17.12L31.05,8.8a1.81,1.81,0,0,0,.22-1.66l-1.1-3,3,.93a1.82,1.82,0,0,0,1.65-.3l2.48-2" transform="translate(-0.07 -0.62)"/><polygon class="cls-3" points="37.2 0.64 36.82 1.04 37.71 0.07 37.29 0.53 37.2 0.64 36.78 1.09 37.66 0.12 37.29 0.53 37.2 0.64"/><path class="cls-3" d="M38.41.88a.48.48,0,0,0-.69.09l-.67.55c-.44.38-.9.75-1.32,1.15l-1.3,1.18L34.27,4a1,1,0,0,1-.28.18,1,1,0,0,1-.64,0L32.49,4c-1.14-.26-2.27-.54-3.39-.87-.45-.13-.17,0-.15-.11a.2.2,0,0,0,0-.11h0L29,3l.07.21c.21.54.38,1.1.57,1.65l.52,1.67.26.84a2,2,0,0,1,.07.33,1,1,0,0,1-.07.39,1.74,1.74,0,0,1-.31.44c-.73.92-1.45,1.83-2.14,2.77l-.52.71a.32.32,0,0,0,0,.49.36.36,0,0,0,.27,0l.44,0,.87,0,1.74-.13.88-.08.43,0,.22,0a1.35,1.35,0,0,1,.29,0,.93.93,0,0,1,.62.36l.28.34.56.67c.38.45.75.9,1.11,1.36l1.06,1.31a.12.12,0,0,0-.19,0s0,.08,0,0l.06-.21.11-.43.88-3.38.11-.43,0-.1a.5.5,0,0,1,0-.17,1.05,1.05,0,0,1,.3-.45,1.18,1.18,0,0,1,.45-.28l.21-.07.41-.14L40.28,10l1.66-.54.42-.14.19-.06-.07.05a.19.19,0,0,0,0,.28c-.94-.67-1.87-1.39-2.78-2.11L39.05,7l-.35-.27a.82.82,0,0,1-.33-.62l.1-1.78c0-.58,0-1.17.06-1.75V1.65C38.52,1.36,38.61,1,38.41.88ZM38.5.77a.56.56,0,0,1,.19.45l0,.43,0,.88c0,.58,0,1.16.11,1.74L39,6a.18.18,0,0,0,.1.11l.38.21.76.43c1,.57,2,1.14,3,1.77a1.19,1.19,0,0,1,.19,1.8,1.1,1.1,0,0,1-.44.28l-.22.08-.41.15-1.65.59L39.1,12l-.42.14-.2.07a.21.21,0,0,0,.08-.06.16.16,0,0,0,.06-.08s0,0,0,0l0,.11-.12.42-1,3.35-.13.41-.06.21a1,1,0,0,1-.19.4,1.12,1.12,0,0,1-1.72.09L35.25,17l0-.05-.06-.09L35,16.66l-.25-.36-.5-.72c-.33-.47-.66-1-1-1.44l-.49-.73-.24-.36c-.06-.09,0-.08-.09-.1l-1.68,0c-.59,0-1.17,0-1.75,0l-.88,0h-.43a.81.81,0,0,1-.56-.15.77.77,0,0,1-.26-.54.86.86,0,0,1,.19-.53l.5-.72c.65-1,1.27-2,1.88-2.95.06-.1.2-.3.17-.29a0,0,0,0,0,0,0l0-.1-.35-.8-.69-1.61c-.22-.54-.45-1.08-.65-1.62l-.07-.21,0-.1a1.91,1.91,0,0,1-.06-.21A1.11,1.11,0,0,1,28.87,1.8a2.46,2.46,0,0,1,.59.14c1.11.36,2.2.77,3.29,1.2l.82.33c.27.09.14.12.48-.1l1.45-1c.49-.32,1-.68,1.43-1l.7-.53A.85.85,0,0,1,38,.62.59.59,0,0,1,38.5.77Z" transform="translate(-0.07 -0.62)"/><path class="cls-3" d="M37.4,2.83l.17,2,.08,1a1.61,1.61,0,0,0,.25.81,1.68,1.68,0,0,0,.63.54l.87.5,1.76,1h0l1.25.71L41,9.82l-2,.56-1,.27a1.59,1.59,0,0,0-.71.36,1.43,1.43,0,0,0-.41.69l-.33,1L36,14.57h0l-.12.36-.24-.29-1.29-1.56-.65-.77a1.39,1.39,0,0,0-1.42-.58l-1,.09-2,.18h0l-1.3.12.77-1.1,1.14-1.66.58-.83a1.2,1.2,0,0,0,.16-1.29l-.36-1-.71-1.88h0L29,3l1.41.55,1.88.75.94.37a1.54,1.54,0,0,0,.79.16,1.48,1.48,0,0,0,.78-.31l.84-.56,1.68-1.13.09.11L35.89,4.26,35.14,5a2.24,2.24,0,0,1-1,.58,2.43,2.43,0,0,1-1.2,0l-1-.22-2-.45.85-.9h0l.69,1.9.34,1A2.63,2.63,0,0,1,32,8.09a2.59,2.59,0,0,1-.52,1.2l-.59.82-1.18,1.64-.53-1h0l2,0h1a2.42,2.42,0,0,1,1.18.27,2.24,2.24,0,0,1,.86.81l.56.84L36,14.4l-.37.07h0l.44-2,.23-1a2.3,2.3,0,0,1,.51-1.07,2.49,2.49,0,0,1,1-.66l.94-.38,1.88-.74-.15,1.1h0l-1.6-1.24-.81-.61a2.51,2.51,0,0,1-.77-.9,2.17,2.17,0,0,1-.19-1.13l.06-1,.11-2Z" transform="translate(-0.07 -0.62)"/><path class="cls-7" d="M28.38,3.09l1.67,4.5a.53.53,0,0,1-.06.46L27.22,12a.5.5,0,0,0,.07.66.55.55,0,0,0,.36.13l4.79-.19a.47.47,0,0,1,.36.13l.06.07,2.88,3.84.06.07a.51.51,0,0,0,.82-.23l1.3-4.62a.48.48,0,0,1,.32-.34l4.54-1.55A.5.5,0,0,0,43,9.1l-.06,0-4-2.67,0,0A.5.5,0,0,1,38.68,6l-.07-4.8a.48.48,0,0,0-.16-.36.5.5,0,0,0-.64,0L34,3.77a.51.51,0,0,1-.46.09L29,2.44A.5.5,0,0,0,28.38,3.09Zm1.79,1.08,3,.93a1.82,1.82,0,0,0,1.65-.3l2.48-2L37.38,6A1.82,1.82,0,0,0,38,7.31a1.93,1.93,0,0,0,.21.17l2.64,1.75-3,1a1.78,1.78,0,0,0-1.16,1.21l-.86,3L33.91,12a2.85,2.85,0,0,0-.23-.26h0a1.8,1.8,0,0,0-1.29-.46l-3.17.12L31.05,8.8a1.81,1.81,0,0,0,.22-1.66Z" transform="translate(-0.07 -0.62)"/><g class="cls-5"><path class="cls-6" d="M38.11.85a.42.42,0,0,1,.24.09.39.39,0,0,1,.1.25L38.52,6a.62.62,0,0,0,.22.47.46.46,0,0,0,.07.07l4,2.66,0,0a.34.34,0,0,1,.1.32.35.35,0,0,1-.22.25l-4.55,1.55a.66.66,0,0,0-.42.44l-1.3,4.62a.34.34,0,0,1-.33.25.31.31,0,0,1-.22-.09l0,0L33,12.67l-.08-.09a.68.68,0,0,0-.47-.17h0l-4.81.19a.34.34,0,0,1-.28-.53l2.77-3.93a.69.69,0,0,0,.08-.61L28.54,3a.34.34,0,0,1,0-.31.35.35,0,0,1,.28-.14H29L33.54,4a.58.58,0,0,0,.19,0,.68.68,0,0,0,.41-.14l3.77-3a.32.32,0,0,1,.2-.08h0M33.73,5A1.55,1.55,0,0,1,33.25,5l-3-.94h0a.18.18,0,0,0-.12,0,.17.17,0,0,0,0,.17l1.1,3a1.66,1.66,0,0,1-.2,1.51L29.09,11.3a.16.16,0,0,0,.13.25h0l3.17-.12h.06a1.68,1.68,0,0,1,1.11.42l.21.23,1.89,2.54a.19.19,0,0,0,.13.07h0a.16.16,0,0,0,.13-.11l.86-3.05a1.62,1.62,0,0,1,1-1.11l3-1A.16.16,0,0,0,41,9.26a.18.18,0,0,0-.07-.16L38.27,7.34l-.19-.15A1.66,1.66,0,0,1,37.54,6l0-3.17a.15.15,0,0,0-.1-.14l-.07,0a.14.14,0,0,0-.1,0l-2.48,2a1.64,1.64,0,0,1-1,.35M38.11.69a.5.5,0,0,0-.3.11L34,3.77a.51.51,0,0,1-.31.11l-.15,0L29,2.44a.39.39,0,0,0-.15,0,.5.5,0,0,0-.47.67l1.67,4.5a.53.53,0,0,1-.06.46L27.22,12a.5.5,0,0,0,.07.66.49.49,0,0,0,.34.13h0l4.79-.19h0a.47.47,0,0,1,.34.13l.06.07,2.88,3.84.06.07a.5.5,0,0,0,.33.13.51.51,0,0,0,.49-.36l1.3-4.62a.48.48,0,0,1,.32-.34l4.54-1.55A.5.5,0,0,0,43,9.1l-.06,0-4-2.67,0,0A.5.5,0,0,1,38.68,6l-.07-4.8a.48.48,0,0,0-.16-.36.51.51,0,0,0-.34-.13ZM33.73,5.18a1.85,1.85,0,0,0,1.12-.38l2.48-2L37.38,6A1.82,1.82,0,0,0,38,7.31a1.93,1.93,0,0,0,.21.17l2.64,1.75-3,1a1.78,1.78,0,0,0-1.16,1.21l-.86,3L33.91,12a2.85,2.85,0,0,0-.23-.26h0a1.84,1.84,0,0,0-1.22-.47h-.07l-3.17.12L31.05,8.8a1.81,1.81,0,0,0,.22-1.66l-1.1-3,3,.93a1.59,1.59,0,0,0,.53.08Z" transform="translate(-0.07 -0.62)"/></g></g></g></g></svg>