<svg xmlns="http://www.w3.org/2000/svg" xmlns:xlink="http://www.w3.org/1999/xlink" viewBox="0 0 40.29 53.74"><defs><style>.cls-1{isolation:isolate;}.cls-2{fill:url(#linear-gradient);}.cls-3{fill:#fff;}.cls-4{fill:url(#linear-gradient-2);}.cls-5{fill:url(#linear-gradient-3);}.cls-6{fill:url(#linear-gradient-4);}.cls-7{opacity:0.6;mix-blend-mode:multiply;}.cls-8{fill:#fc992d;}.cls-9{fill:#fffd8c;}.cls-10,.cls-11{opacity:0.78;mix-blend-mode:overlay;}.cls-10{fill:url(#linear-gradient-5);}.cls-11{fill:url(#linear-gradient-6);}</style><linearGradient id="linear-gradient" x1="13.81" y1="50.35" x2="33.58" y2="30.58" gradientUnits="userSpaceOnUse"><stop offset="0" stop-color="#c06d1e"/><stop offset="0.06" stop-color="#cc8426"/><stop offset="0.19" stop-color="#e9c03a"/><stop offset="0.27" stop-color="#fce747"/><stop offset="0.32" stop-color="#f0d03f"/><stop offset="0.42" stop-color="#d3942b"/><stop offset="0.48" stop-color="#c06d1e"/><stop offset="0.54" stop-color="#cc8426"/><stop offset="0.65" stop-color="#e9c03a"/><stop offset="0.71" stop-color="#fce747"/><stop offset="0.78" stop-color="#f0d03f"/><stop offset="0.91" stop-color="#d3942b"/><stop offset="0.99" stop-color="#c06d1e"/></linearGradient><linearGradient id="linear-gradient-2" x1="18.18" y1="25.52" x2="31.89" y2="18.18" xlink:href="#linear-gradient"/><linearGradient id="linear-gradient-3" x1="4" y1="-49.58" x2="22.16" y2="-11.25" gradientTransform="translate(3.48 49.29) rotate(7.37)" gradientUnits="userSpaceOnUse"><stop offset="0.01" stop-color="#fc992d"/><stop offset="0.55" stop-color="#fffd8c"/><stop offset="0.99" stop-color="#f7962c"/></linearGradient><linearGradient id="linear-gradient-4" x1="0.17" y1="17.56" x2="40.12" y2="22.73" gradientUnits="userSpaceOnUse"><stop offset="0.09" stop-color="#252525"/><stop offset="0.75" stop-color="#070b0d"/></linearGradient><linearGradient id="linear-gradient-5" x1="1.06" y1="-51.84" x2="-2.05" y2="-28.07" gradientTransform="translate(3.48 49.29) rotate(7.37)" gradientUnits="userSpaceOnUse"><stop offset="0.13" stop-color="#fffd8c"/><stop offset="0.18" stop-color="#fffd8c" stop-opacity="0.95"/><stop offset="0.29" stop-color="#fffd8c" stop-opacity="0.83"/><stop offset="0.43" stop-color="#fffd8c" stop-opacity="0.63"/><stop offset="0.59" stop-color="#fffd8c" stop-opacity="0.35"/><stop offset="0.78" stop-color="#fffd8c" stop-opacity="0"/></linearGradient><linearGradient id="linear-gradient-6" x1="35.95" y1="-13.87" x2="2.77" y2="-21.29" xlink:href="#linear-gradient-5"/></defs><g class="cls-1"><g id="Layer_2" data-name="Layer 2"><g id="Layer_1-2" data-name="Layer 1"><path class="cls-2" d="M27,24.14a33.34,33.34,0,0,1,4.55,8.53,20.05,20.05,0,0,1,1.24,9.73A12,12,0,0,1,31,47.12a13.06,13.06,0,0,1-3.51,3.52,19.08,19.08,0,0,1-4.38,2.08c-.76.27-1.55.42-2.32.62s-1.56.28-2.34.4L20.68,53c.72-.31,1.46-.58,2.16-.92a18.11,18.11,0,0,0,3.92-2.39A11.2,11.2,0,0,0,31,42.15a20.47,20.47,0,0,0-1.26-8.84,36.61,36.61,0,0,0-1.79-4.24,42.47,42.47,0,0,0-2.22-4l0,0A.76.76,0,0,1,27,24.14Z"/><ellipse class="cls-3" cx="25.03" cy="21.85" rx="7.77" ry="9.58" transform="translate(-7.35 14.4) rotate(-28.17)"/><path class="cls-4" d="M23,18a5.52,5.52,0,0,0,4.28,2.1A7.71,7.71,0,0,0,28.56,20a5.49,5.49,0,0,0-1.45,5.74,5.56,5.56,0,0,0-4.28-2.1,7.76,7.76,0,0,0-1.32.13A5.51,5.51,0,0,0,23,18m-2.45-4.58c2.88,7.17,2.68,8.25-2.33,12.11a15.85,15.85,0,0,1,4.65-1.08c2.39,0,3.81,1.61,6.72,5.85-2.87-7.17-2.67-8.24,2.34-12.11a15.54,15.54,0,0,1-4.65,1.08c-2.39,0-3.81-1.6-6.73-5.85Zm11.38,4.77Z"/><path class="cls-5" d="M39.88,22.7A19.9,19.9,0,0,1,.41,17.59a20.13,20.13,0,0,1,.48-2.48A19.9,19.9,0,0,1,22.49.39l.2,0A19.4,19.4,0,0,1,25,.85,14.15,14.15,0,0,0,12.31,9a13.68,13.68,0,0,0-1.23,4.21,13.89,13.89,0,0,0,.38,5.55,14.14,14.14,0,0,0,6,8.16A13.92,13.92,0,0,0,23.29,29,14.12,14.12,0,0,0,39.13,16.8a14.74,14.74,0,0,0,.1-2.29l.12.43A20.1,20.1,0,0,1,39.88,22.7Z"/><path class="cls-6" d="M20.11.24a19.13,19.13,0,0,1,2.38.15l.2,0A19.4,19.4,0,0,1,25,.85,14.15,14.15,0,0,0,12.31,9a13.68,13.68,0,0,0-1.23,4.21,13.89,13.89,0,0,0,.38,5.55,14.14,14.14,0,0,0,6,8.16A13.92,13.92,0,0,0,23.29,29a14.29,14.29,0,0,0,1.83.12,14.12,14.12,0,0,0,14-12.33,14.74,14.74,0,0,0,.1-2.29l.12.43A19.9,19.9,0,0,1,29,38a19.8,19.8,0,0,1-8.79,2.06,20.57,20.57,0,0,1-2.58-.17A19.9,19.9,0,0,1,.41,17.59a20.13,20.13,0,0,1,.48-2.48A19.92,19.92,0,0,1,20.11.24m0-.24A20.15,20.15,0,0,0,.65,15.05a19.82,19.82,0,0,0-.48,2.51A20.13,20.13,0,0,0,17.56,40.12a20.79,20.79,0,0,0,2.61.17A20.15,20.15,0,0,0,39.59,14.88l-.13-.44a.24.24,0,0,0-.23-.17h0a.25.25,0,0,0-.21.25,13.51,13.51,0,0,1-.09,2.25A13.83,13.83,0,0,1,30.94,27.6a13.9,13.9,0,0,1-13.35-.92A13.91,13.91,0,0,1,11.32,13.2a13.44,13.44,0,0,1,1.21-4.14A13.93,13.93,0,0,1,25,1.1a.25.25,0,0,0,.24-.22.23.23,0,0,0-.18-.26A21.05,21.05,0,0,0,22.72.17l-.21,0A21.32,21.32,0,0,0,20.11,0Z"/><g class="cls-7"><path class="cls-8" d="M39.39,19.58A17,17,0,1,1,22.49.39l.2,0A19.4,19.4,0,0,1,25,.85a14.14,14.14,0,1,0,14.12,16,14.74,14.74,0,0,0,.1-2.29l.12.43A17.14,17.14,0,0,1,39.39,19.58Z"/></g><g class="cls-7"><path class="cls-8" d="M20.6,33.88A16.8,16.8,0,0,1,22.72.42h.09l-.12,0-.2,0a17,17,0,1,0,16.9,19.19.49.49,0,0,0,0-.12A16.79,16.79,0,0,1,20.6,33.88Z"/></g><g class="cls-7"><path class="cls-8" d="M39,17.4c.05-.26.09-.51.12-.77a13.54,13.54,0,0,0,.1-2l0-.12a14.74,14.74,0,0,1-.1,2.29C39.11,17,39.07,17.2,39,17.4Z"/></g><path class="cls-9" d="M20.11.57a20.58,20.58,0,0,1,2.35.14l.19,0h0a14.47,14.47,0,0,0,.59,28.61,14.68,14.68,0,0,0,1.87.12A14.5,14.5,0,0,0,39.45,16.91a19.37,19.37,0,0,1,.1,5.74A19.6,19.6,0,0,1,20.17,39.72a21.65,21.65,0,0,1-2.54-.16,19.58,19.58,0,0,1,2.48-39m0-.33a19.9,19.9,0,0,0-2.52,39.64,20.54,20.54,0,0,0,2.58.16A19.9,19.9,0,0,0,39.88,22.7a20.1,20.1,0,0,0-.53-7.76l-.12-.43a14.74,14.74,0,0,1-.1,2.29,14.14,14.14,0,0,1-14,12.33A14.29,14.29,0,0,1,23.29,29,14.14,14.14,0,0,1,25,.85,19.4,19.4,0,0,0,22.69.41l-.2,0A19.13,19.13,0,0,0,20.11.24Z"/><path class="cls-10" d="M11.46,18.72A51.2,51.2,0,0,1,.89,15.11,19.74,19.74,0,0,1,6.65,5.52,31.43,31.43,0,0,0,12.31,9a13.68,13.68,0,0,0-1.23,4.21A13.89,13.89,0,0,0,11.46,18.72Z"/><path class="cls-11" d="M29,38A19.91,19.91,0,0,1,6.64,34.76a26.64,26.64,0,0,0,10.82-7.88A13.92,13.92,0,0,0,23.29,29,14.07,14.07,0,0,0,31,27.83,34,34,0,0,1,29,38Z"/><ellipse class="cls-9" cx="3.96" cy="10.01" rx="1.53" ry="0.77" transform="translate(-6.74 8.79) rotate(-61.91)"/><ellipse class="cls-9" cx="3.75" cy="12.03" rx="0.66" ry="0.37" transform="translate(-8.63 9.67) rotate(-61.91)"/></g></g></g></svg>