<svg xmlns="http://www.w3.org/2000/svg" xmlns:xlink="http://www.w3.org/1999/xlink" viewBox="0 0 40.29 40.29"><defs><style>.cls-1{isolation:isolate;}.cls-2{fill:url(#linear-gradient);}.cls-3{fill:url(#linear-gradient-2);}.cls-4{opacity:0.6;mix-blend-mode:multiply;}.cls-5{fill:#fc992d;}.cls-6{fill:#fffd8c;}.cls-7,.cls-8{opacity:0.78;mix-blend-mode:overlay;}.cls-7{fill:url(#linear-gradient-3);}.cls-8{fill:url(#linear-gradient-4);}</style><linearGradient id="linear-gradient" x1="2.88" y1="-37.86" x2="21.05" y2="0.47" gradientTransform="translate(6.08 37.8) rotate(7.37)" gradientUnits="userSpaceOnUse"><stop offset="0.01" stop-color="#fc992d"/><stop offset="0.55" stop-color="#fffd8c"/><stop offset="0.99" stop-color="#f7962c"/></linearGradient><linearGradient id="linear-gradient-2" x1="0.17" y1="17.56" x2="40.12" y2="22.73" gradientUnits="userSpaceOnUse"><stop offset="0.09" stop-color="#252525"/><stop offset="0.75" stop-color="#070b0d"/></linearGradient><linearGradient id="linear-gradient-3" x1="-0.06" y1="-40.11" x2="-3.16" y2="-16.35" gradientTransform="translate(6.08 37.8) rotate(7.37)" gradientUnits="userSpaceOnUse"><stop offset="0.13" stop-color="#fffd8c"/><stop offset="0.18" stop-color="#fffd8c" stop-opacity="0.95"/><stop offset="0.29" stop-color="#fffd8c" stop-opacity="0.83"/><stop offset="0.43" stop-color="#fffd8c" stop-opacity="0.63"/><stop offset="0.59" stop-color="#fffd8c" stop-opacity="0.35"/><stop offset="0.78" stop-color="#fffd8c" stop-opacity="0"/></linearGradient><linearGradient id="linear-gradient-4" x1="34.84" y1="-2.14" x2="1.66" y2="-9.57" xlink:href="#linear-gradient-3"/></defs><g class="cls-1"><g id="Layer_2" data-name="Layer 2"><g id="Layer_1-2" data-name="Layer 1"><path class="cls-2" d="M39.88,22.7A19.9,19.9,0,0,1,.41,17.59a20.13,20.13,0,0,1,.48-2.48A19.9,19.9,0,0,1,22.49.39l.2,0A19.4,19.4,0,0,1,25,.85,14.15,14.15,0,0,0,12.31,9a13.68,13.68,0,0,0-1.23,4.21,13.89,13.89,0,0,0,.38,5.55,14.14,14.14,0,0,0,6,8.16A13.92,13.92,0,0,0,23.29,29,14.12,14.12,0,0,0,39.13,16.8a14.74,14.74,0,0,0,.1-2.29l.12.43A20.1,20.1,0,0,1,39.88,22.7Z"/><path class="cls-3" d="M20.11.24a19.13,19.13,0,0,1,2.38.15l.2,0A19.4,19.4,0,0,1,25,.85,14.15,14.15,0,0,0,12.31,9a13.68,13.68,0,0,0-1.23,4.21,13.89,13.89,0,0,0,.38,5.55,14.14,14.14,0,0,0,6,8.16A13.79,13.79,0,0,0,23.29,29a14.29,14.29,0,0,0,1.83.12,14.12,14.12,0,0,0,14-12.33,14.74,14.74,0,0,0,.1-2.29l.12.43A19.9,19.9,0,0,1,29,38a19.8,19.8,0,0,1-8.79,2.06,20.57,20.57,0,0,1-2.58-.17A19.9,19.9,0,0,1,.41,17.59a20.13,20.13,0,0,1,.48-2.48A19.92,19.92,0,0,1,20.11.24m0-.24A20.15,20.15,0,0,0,.65,15.05a19.82,19.82,0,0,0-.48,2.51A20.13,20.13,0,0,0,17.56,40.12a20.79,20.79,0,0,0,2.61.17A20.15,20.15,0,0,0,39.59,14.88l-.13-.44a.24.24,0,0,0-.23-.17h0a.25.25,0,0,0-.21.25,13.51,13.51,0,0,1-.09,2.25A13.83,13.83,0,0,1,30.94,27.6a13.9,13.9,0,0,1-13.35-.92A13.91,13.91,0,0,1,11.32,13.2a13.44,13.44,0,0,1,1.21-4.14A13.93,13.93,0,0,1,25,1.1a.25.25,0,0,0,.24-.22.23.23,0,0,0-.18-.26A21.05,21.05,0,0,0,22.72.17l-.21,0A21.32,21.32,0,0,0,20.11,0Z"/><g class="cls-4"><path class="cls-5" d="M39.39,19.58A17,17,0,1,1,22.49.39l.2,0A19.4,19.4,0,0,1,25,.85a14.14,14.14,0,1,0,14.12,16,14.74,14.74,0,0,0,.1-2.29l.12.43A17.14,17.14,0,0,1,39.39,19.58Z"/></g><g class="cls-4"><path class="cls-5" d="M20.6,33.88A16.8,16.8,0,0,1,22.72.42h.09l-.12,0-.2,0a17,17,0,1,0,16.9,19.19.49.49,0,0,0,0-.12A16.79,16.79,0,0,1,20.6,33.88Z"/></g><g class="cls-4"><path class="cls-5" d="M39,17.4c.05-.26.09-.51.12-.77a13.54,13.54,0,0,0,.1-2l0-.12a14.74,14.74,0,0,1-.1,2.29C39.11,17,39.07,17.2,39,17.4Z"/></g><path class="cls-6" d="M20.11.57a20.58,20.58,0,0,1,2.35.14l.19,0h0a14.47,14.47,0,0,0,.59,28.61,14.68,14.68,0,0,0,1.87.12A14.5,14.5,0,0,0,39.45,16.91a19.37,19.37,0,0,1,.1,5.74A19.6,19.6,0,0,1,20.17,39.72a21.65,21.65,0,0,1-2.54-.16,19.58,19.58,0,0,1,2.48-39m0-.33a19.9,19.9,0,0,0-2.52,39.64,20.54,20.54,0,0,0,2.58.16A19.9,19.9,0,0,0,39.88,22.7a20.1,20.1,0,0,0-.53-7.76l-.12-.43a14.74,14.74,0,0,1-.1,2.29,14.14,14.14,0,0,1-14,12.33A14.29,14.29,0,0,1,23.29,29,14.14,14.14,0,0,1,25,.85,19.4,19.4,0,0,0,22.69.41l-.2,0A19.13,19.13,0,0,0,20.11.24Z"/><path class="cls-7" d="M11.46,18.72A51.2,51.2,0,0,1,.89,15.11,19.74,19.74,0,0,1,6.65,5.52,31.43,31.43,0,0,0,12.31,9a13.68,13.68,0,0,0-1.23,4.21A13.89,13.89,0,0,0,11.46,18.72Z"/><path class="cls-8" d="M29,38A19.91,19.91,0,0,1,6.64,34.76a26.64,26.64,0,0,0,10.82-7.88A13.92,13.92,0,0,0,23.29,29,14.07,14.07,0,0,0,31,27.83,34,34,0,0,1,29,38Z"/><ellipse class="cls-6" cx="3.96" cy="10.01" rx="1.53" ry="0.77" transform="translate(-6.74 8.79) rotate(-61.91)"/><ellipse class="cls-6" cx="3.75" cy="12.03" rx="0.66" ry="0.37" transform="translate(-8.63 9.67) rotate(-61.91)"/></g></g></g></svg>