<svg xmlns="http://www.w3.org/2000/svg" xmlns:xlink="http://www.w3.org/1999/xlink" viewBox="0 0 21.97 25.41"><defs><style>.cls-1{fill:url(#linear-gradient);}.cls-2{fill:url(#linear-gradient-2);}.cls-3{fill:url(#linear-gradient-3);}</style><linearGradient id="linear-gradient" x1="10.14" y1="12.12" x2="7.41" y2="-23.11" gradientUnits="userSpaceOnUse"><stop offset="0" stop-color="#483985"/><stop offset="0.28" stop-color="#3b2f6e"/><stop offset="0.87" stop-color="#1a1632"/><stop offset="0.89" stop-color="#191530"/></linearGradient><linearGradient id="linear-gradient-2" x1="10.51" y1="1.36" x2="10.51" y2="25.41" gradientUnits="userSpaceOnUse"><stop offset="0" stop-color="#c06d1e"/><stop offset="0.23" stop-color="#cc8426"/><stop offset="0.71" stop-color="#e9c03a"/><stop offset="1" stop-color="#fce747"/></linearGradient><linearGradient id="linear-gradient-3" x1="11.34" y1="10.38" x2="8.2" y2="-30.12" xlink:href="#linear-gradient"/></defs><g id="Layer_2" data-name="Layer 2"><g id="Layer_1-2" data-name="Layer 1"><path class="cls-1" d="M16,13.13a9,9,0,0,1,3.33-2.87A21.89,21.89,0,0,1,12.74,3c-1.81,1.6-4.89,4.52-5.58,6.51-1,2.86,1.48,5.45,2.75,6.61s.52,4.86-8.25,7.61c0,0,13.5-.51,15.37-4S14.88,15.17,16,13.13Z"/><path class="cls-2" d="M12.74,3a21.89,21.89,0,0,0,6.63,7.24A9,9,0,0,0,16,13.13c-1.16,2,2.86,3.2,1,6.66s-15.37,4-15.37,4c8.77-2.75,9.52-6.45,8.25-7.61S6.15,12.39,7.16,9.53c.69-2,3.77-4.91,5.58-6.51m0-1.66a1.64,1.64,0,0,0-1.1.42C8.26,4.77,6.22,7.19,5.59,9S5,13.82,8.73,17.31c0,.46-1.05,2.82-7.57,4.86a1.66,1.66,0,0,0,.5,3.24h.06c3.39-.13,14.61-.86,16.76-4.83a5.17,5.17,0,0,0-.54-5.93,6.41,6.41,0,0,1-.44-.73,7.75,7.75,0,0,1,2.69-2.23,1.66,1.66,0,0,0,.12-2.8A20.34,20.34,0,0,1,14.18,2.2,1.68,1.68,0,0,0,13,1.38l-.27,0Z"/><path class="cls-3" d="M19.34,10.27a17.51,17.51,0,0,0,2.16,1.27L22,9.39,13.22,0l-1.5,1a17.24,17.24,0,0,0,1,2.05c-1.8,1.6-4.88,4.52-5.57,6.51-1,2.86,1.48,5.45,2.75,6.61s.52,4.86-8.25,7.61c0,0,13.5-.51,15.37-4s-2.15-4.62-1-6.66A9,9,0,0,1,19.34,10.27Z"/></g></g></svg>