<svg xmlns="http://www.w3.org/2000/svg" xmlns:xlink="http://www.w3.org/1999/xlink" viewBox="0 0 14.75 40.33"><defs><style>.cls-1{fill:url(#linear-gradient);}.cls-2{fill:#fff;}.cls-3{fill:url(#linear-gradient-2);}</style><linearGradient id="linear-gradient" x1="-4.37" y1="36.94" x2="15.4" y2="17.17" gradientUnits="userSpaceOnUse"><stop offset="0" stop-color="#c06d1e"/><stop offset="0.06" stop-color="#cc8426"/><stop offset="0.19" stop-color="#e9c03a"/><stop offset="0.27" stop-color="#fce747"/><stop offset="0.32" stop-color="#f0d03f"/><stop offset="0.42" stop-color="#d3942b"/><stop offset="0.48" stop-color="#c06d1e"/><stop offset="0.54" stop-color="#cc8426"/><stop offset="0.65" stop-color="#e9c03a"/><stop offset="0.71" stop-color="#fce747"/><stop offset="0.78" stop-color="#f0d03f"/><stop offset="0.91" stop-color="#d3942b"/><stop offset="0.99" stop-color="#c06d1e"/></linearGradient><linearGradient id="linear-gradient-2" x1="0" y1="12.11" x2="13.71" y2="4.77" xlink:href="#linear-gradient"/></defs><g id="Layer_2" data-name="Layer 2"><g id="Layer_1-2" data-name="Layer 1"><path class="cls-1" d="M8.78,10.73a33,33,0,0,1,4.56,8.54A20,20,0,0,1,14.58,29a11.84,11.84,0,0,1-1.78,4.72,12.89,12.89,0,0,1-3.5,3.52,19.75,19.75,0,0,1-4.38,2.09c-.76.26-1.55.41-2.32.61s-1.56.28-2.35.4l2.25-.76c.72-.31,1.46-.58,2.15-.92a18.17,18.17,0,0,0,3.93-2.39,11.24,11.24,0,0,0,4.23-7.51,20.36,20.36,0,0,0-1.27-8.85,36.55,36.55,0,0,0-1.78-4.24,42.47,42.47,0,0,0-2.22-4l0,0a.76.76,0,0,1,.25-1.05A.75.75,0,0,1,8.78,10.73Z"/><ellipse class="cls-2" cx="6.85" cy="8.44" rx="7.77" ry="9.58" transform="translate(-3.17 4.23) rotate(-28.17)"/><path class="cls-3" d="M4.77,4.58a5.54,5.54,0,0,0,4.29,2.1,7.8,7.8,0,0,0,1.32-.12A5.47,5.47,0,0,0,8.93,12.3a5.55,5.55,0,0,0-4.29-2.09,7.89,7.89,0,0,0-1.32.12A5.48,5.48,0,0,0,4.77,4.58M2.33,0C5.21,7.17,5,8.25,0,12.11A15.8,15.8,0,0,1,4.64,11c2.4,0,3.82,1.61,6.73,5.86C8.49,9.71,8.7,8.64,13.7,4.77A15.48,15.48,0,0,1,9.06,5.85C6.67,5.85,5.25,4.25,2.33,0ZM13.7,4.77h0Z"/></g></g></svg>